<svg width="2000" height="1160" viewBox="0 0 2000 1160" fill="none" xmlns="http://www.w3.org/2000/svg">
<rect width="1920" height="1080" transform="translate(40 40)" fill="white"/>
<path d="M1960 40H40V1120H1960V40Z" fill="#FDD947"/>
<path fill-rule="evenodd" clip-rule="evenodd" d="M333.344 595.023C327.864 502.17 388.141 348.74 492.254 346C596.367 348.74 656.643 502.17 651.164 595.023C651.164 641.901 615.601 674.478 571.709 674.478C538.693 674.478 510.39 654.356 498.391 625.703V495.622H487.432V622.352C476.293 652.775 447.087 674.478 412.799 674.478C368.907 674.478 333.344 641.901 333.344 595.023ZM447.376 476.443C453.428 476.443 458.335 471.536 458.335 465.484C458.335 459.431 453.428 454.524 447.376 454.524C441.323 454.524 436.416 459.431 436.416 465.484C436.416 471.536 441.323 476.443 447.376 476.443ZM552.53 470.963C552.53 477.016 547.623 481.923 541.57 481.923C535.518 481.923 530.611 477.016 530.611 470.963C530.611 464.911 535.518 460.004 541.57 460.004C547.623 460.004 552.53 464.911 552.53 470.963Z" fill="white"/>
<path fill-rule="evenodd" clip-rule="evenodd" d="M670.425 527.376C670.425 369.59 827.965 356.137 901.94 367.097C985.066 379.426 1000.57 441.072 992.354 490.389C983.576 543.055 917.834 565.072 888.546 572.337H786.265V583.296H890.889C918.17 601.717 922.917 636.763 899.2 657.518C877.281 676.697 670.425 703.849 670.425 527.376ZM849.281 481.923C855.333 481.923 860.24 477.016 860.24 470.963C860.24 464.911 855.333 460.004 849.281 460.004C843.228 460.004 838.321 464.911 838.321 470.963C838.321 477.016 843.228 481.923 849.281 481.923ZM958.874 470.963C958.874 477.016 953.967 481.923 947.914 481.923C941.862 481.923 936.955 477.016 936.955 470.963C936.955 464.911 941.862 460.004 947.914 460.004C953.967 460.004 958.874 464.911 958.874 470.963Z" fill="white"/>
<path fill-rule="evenodd" clip-rule="evenodd" d="M1013.11 527.376C1013.11 369.59 1170.65 356.137 1244.63 367.097C1327.76 379.426 1343.26 441.072 1335.04 490.389C1326.27 543.055 1260.52 565.072 1231.24 572.337H1128.95V583.296H1233.58C1260.86 601.717 1265.61 636.763 1241.89 657.518C1219.97 676.697 1013.11 703.849 1013.11 527.376ZM1194.71 481.923C1200.76 481.923 1205.67 477.016 1205.67 470.963C1205.67 464.911 1200.76 460.004 1194.71 460.004C1188.66 460.004 1183.75 464.911 1183.75 470.963C1183.75 477.016 1188.66 481.923 1194.71 481.923ZM1304.3 470.963C1304.3 477.016 1299.4 481.923 1293.34 481.923C1287.29 481.923 1282.38 477.016 1282.38 470.963C1282.38 464.911 1287.29 460.004 1293.34 460.004C1299.4 460.004 1304.3 464.911 1304.3 470.963Z" fill="white"/>
<path fill-rule="evenodd" clip-rule="evenodd" d="M1357.9 558.638C1363.38 627.134 1423.65 660.011 1423.65 660.011C1451.05 681.93 1563.47 679.82 1590.78 676.45L1592.52 676.237C1615.8 673.385 1639.31 670.504 1652.67 651.792C1663.93 636.038 1666.37 607.955 1638.97 588.776C1622.98 577.575 1594.86 577.166 1576.03 578.433L1557.56 580.43C1557.05 580.51 1556.78 580.557 1556.78 580.557L1556.88 580.504L1480.65 588.744L1479.48 577.848L1572.17 567.828C1600.62 534.507 1607.31 462.158 1590.78 424.386C1571.6 380.549 1504.04 335.068 1426.39 369.59C1352.42 402.468 1352.42 490.142 1357.9 558.638ZM1408.83 481.923C1414.88 481.923 1419.79 477.016 1419.79 470.964C1419.79 464.911 1414.88 460.004 1408.83 460.004C1402.78 460.004 1397.87 464.911 1397.87 470.964C1397.87 477.016 1402.78 481.923 1408.83 481.923ZM1518.42 470.964C1518.42 477.016 1513.52 481.923 1507.46 481.923C1501.41 481.923 1496.5 477.016 1496.5 470.964C1496.5 464.911 1501.41 460.004 1507.46 460.004C1513.52 460.004 1518.42 464.911 1518.42 470.964Z" fill="white"/>
<path d="M856.864 765.136H870.976V780.976H856.864V765.136ZM856.672 734.896H868.768V737.296C868.768 740.56 868.288 743.728 867.328 746.8C866.432 749.808 864.992 752.624 863.008 755.248C861.088 757.808 858.688 760.112 855.808 762.16C852.928 764.208 849.536 765.968 845.632 767.44C841.792 768.912 837.472 769.968 832.672 770.608L827.488 759.568C831.712 759.056 835.424 758.288 838.624 757.264C841.888 756.176 844.64 754.896 846.88 753.424C849.184 751.888 851.04 750.256 852.448 748.528C853.92 746.736 854.976 744.88 855.616 742.96C856.32 741.04 856.672 739.152 856.672 737.296V734.896ZM859.072 734.896H871.168V737.296C871.168 739.28 871.488 741.232 872.128 743.152C872.768 745.072 873.792 746.928 875.2 748.72C876.672 750.448 878.528 752.048 880.768 753.52C883.072 754.992 885.856 756.24 889.12 757.264C892.384 758.288 896.128 759.056 900.352 759.568L895.168 770.608C890.368 769.968 886.048 768.944 882.208 767.536C878.368 766.064 874.976 764.336 872.032 762.352C869.152 760.304 866.752 758 864.832 755.44C862.912 752.88 861.472 750.096 860.512 747.088C859.552 744.016 859.072 740.752 859.072 737.296V734.896ZM823.648 775.504H904.576V786.544H823.648V775.504ZM863.872 790.768C873.664 790.768 881.312 792.176 886.816 794.992C892.32 797.808 895.072 801.776 895.072 806.896C895.072 812.016 892.32 815.952 886.816 818.704C881.312 821.456 873.664 822.832 863.872 822.832C854.144 822.832 846.496 821.456 840.928 818.704C835.424 815.952 832.672 812.016 832.672 806.896C832.672 801.776 835.424 797.808 840.928 794.992C846.496 792.176 854.144 790.768 863.872 790.768ZM863.872 801.328C858.112 801.328 853.856 801.776 851.104 802.672C848.352 803.504 846.976 804.912 846.976 806.896C846.976 808.88 848.352 810.288 851.104 811.12C853.856 811.952 858.112 812.368 863.872 812.368C869.632 812.368 873.888 811.952 876.64 811.12C879.392 810.288 880.768 808.88 880.768 806.896C880.768 804.912 879.392 803.504 876.64 802.672C873.888 801.776 869.632 801.328 863.872 801.328ZM921.177 772.72H984.537V783.952H921.177V772.72ZM912.057 801.52H992.985V813.04H912.057V801.52ZM945.369 777.808H959.481V805.072H945.369V777.808ZM921.177 739.12H983.865V750.448H935.289V777.52H921.177V739.12ZM1000.37 774.832H1081.39V785.968H1000.37V774.832ZM1033.87 761.584H1047.89V779.056H1033.87V761.584ZM1010.07 757.168H1072.27V768.208H1010.07V757.168ZM1010.07 737.104H1071.79V748.144H1024.08V764.272H1010.07V737.104ZM1040.5 789.904C1050.23 789.904 1057.84 791.344 1063.35 794.224C1068.91 797.104 1071.7 801.168 1071.7 806.416C1071.7 811.664 1068.91 815.728 1063.35 818.608C1057.84 821.488 1050.23 822.928 1040.5 822.928C1030.83 822.928 1023.22 821.488 1017.65 818.608C1012.08 815.728 1009.3 811.664 1009.3 806.416C1009.3 801.168 1012.08 797.104 1017.65 794.224C1023.22 791.344 1030.83 789.904 1040.5 789.904ZM1040.5 800.464C1036.72 800.464 1033.59 800.688 1031.09 801.136C1028.59 801.584 1026.71 802.224 1025.43 803.056C1024.21 803.888 1023.6 805.008 1023.6 806.416C1023.6 807.824 1024.21 808.976 1025.43 809.872C1026.71 810.704 1028.59 811.312 1031.09 811.696C1033.59 812.08 1036.72 812.272 1040.5 812.272C1044.34 812.272 1047.51 812.08 1050 811.696C1052.5 811.312 1054.35 810.704 1055.57 809.872C1056.79 808.976 1057.39 807.824 1057.39 806.416C1057.39 805.008 1056.79 803.888 1055.57 803.056C1054.35 802.224 1052.5 801.584 1050 801.136C1047.51 800.688 1044.34 800.464 1040.5 800.464ZM1091.75 741.52H1105.67V793.36H1091.75V741.52ZM1091.75 789.808H1098.19C1103.63 789.808 1108.68 789.68 1113.35 789.424C1118.09 789.104 1122.95 788.432 1127.95 787.408L1129.77 799.12C1124.52 800.272 1119.37 801.008 1114.31 801.328C1109.32 801.648 1103.95 801.808 1098.19 801.808H1091.75V789.808ZM1152.52 733.264H1165.96V822.736H1152.52V733.264ZM1116.62 761.008H1136.49V772.336H1116.62V761.008ZM1133.51 734.704H1146.67V818.992H1133.51V734.704Z" fill="white"/>
<rect x="40" y="4" width="32.24" height="30" rx="3" fill="white"/>
<rect x="40.5" y="4.5" width="31.24" height="29" rx="2.5" stroke="white" stroke-opacity="0.0980392"/>
<path d="M50.686 13.937H51.566C51.566 14.6557 51.4927 15.356 51.346 16.038C51.2067 16.72 50.9647 17.3727 50.62 17.996C50.2827 18.6193 49.8243 19.2023 49.245 19.745C48.673 20.2877 47.947 20.779 47.067 21.219L46.561 20.515C47.3237 20.1263 47.969 19.6973 48.497 19.228C49.025 18.7587 49.4503 18.2527 49.773 17.71C50.0957 17.1673 50.3267 16.5917 50.466 15.983C50.6127 15.367 50.686 14.718 50.686 14.036V13.937ZM47.089 13.937H51.236V14.685H47.089V13.937ZM50.631 16.401V17.105L46.748 17.468L46.583 16.676L50.631 16.401ZM53.821 12.903H54.723V22.858H53.821V12.903ZM51.533 16.896H54.261V17.655H51.533V16.896ZM63.9511 12.903H64.8531V22.869H63.9511V12.903ZM61.3331 16.599H64.2151V17.347H61.3331V16.599ZM57.0651 13.684H57.9781V16.269H60.7391V13.684H61.6301V20.361H57.0651V13.684ZM57.9781 16.995V19.613H60.7391V16.995H57.9781Z" fill="black"/>
</svg>
