<svg width="110" height="28" viewBox="0 0 110 28" fill="none" xmlns="http://www.w3.org/2000/svg">
<path fill-rule="evenodd" clip-rule="evenodd" d="M0.0274593 21.0438C-0.435601 13.1972 4.65806 0.23153 13.4562 0C22.2544 0.23153 27.348 13.1972 26.885 21.0438C26.885 25.0053 23.8797 27.7582 20.1706 27.7582C17.3828 27.7582 14.9926 26.0605 13.9772 23.6422V12.6439H13.0511V23.3467C12.1116 25.921 9.64186 27.7582 6.74184 27.7582C3.03272 27.7582 0.0274593 25.0053 0.0274593 21.0438ZM9.33657 11.1644C9.84806 11.1644 10.2627 10.7497 10.2627 10.2382C10.2627 9.72676 9.84806 9.31212 9.33657 9.31212C8.82509 9.31212 8.41045 9.72676 8.41045 10.2382C8.41045 10.7497 8.82509 11.1644 9.33657 11.1644ZM18.5976 10.2382C18.5976 10.7497 18.1829 11.1643 17.6715 11.1643C17.16 11.1643 16.7453 10.7497 16.7453 10.2382C16.7453 9.72675 17.16 9.31211 17.6715 9.31211C18.1829 9.31211 18.5976 9.72675 18.5976 10.2382Z" fill="#1C1814"/>
<path fill-rule="evenodd" clip-rule="evenodd" d="M47.3411 2.03196C41.0898 1.10584 27.7768 2.24265 27.7768 15.5765C27.7768 30.4893 45.2573 28.1949 47.1096 26.5742C49.1138 24.8203 48.7126 21.8587 46.4073 20.302H37.5636V19.3759H46.2092C48.6841 18.762 54.2398 16.9014 54.9816 12.4508C55.6762 8.28327 54.3657 3.07384 47.3411 2.03196ZM50.0144 10.205C50.0144 10.7165 49.5997 11.1311 49.0883 11.1311C48.5768 11.1311 48.1621 10.7165 48.1621 10.205C48.1621 9.69351 48.5768 9.27887 49.0883 9.27887C49.5997 9.27887 50.0144 9.69351 50.0144 10.205Z" fill="#1C1814"/>
<path fill-rule="evenodd" clip-rule="evenodd" d="M75.5734 2.03196C69.3221 1.10584 56.0091 2.24265 56.0091 15.5765C56.0091 30.4893 73.4896 28.1949 75.3419 26.5742C77.3461 24.8202 76.9449 21.8586 74.6395 20.302H65.7985V19.3759H74.4416C76.9165 18.7619 82.4721 16.9014 83.2139 12.4508C83.9085 8.28327 82.598 3.07384 75.5734 2.03196ZM76.9211 9.99428C76.9211 10.5058 76.5064 10.9204 75.9949 10.9204C75.4835 10.9204 75.0688 10.5058 75.0688 9.99428C75.0688 9.4828 75.4835 9.06816 75.9949 9.06816C76.5064 9.06816 76.9211 9.4828 76.9211 9.99428Z" fill="#1C1814"/>
<path fill-rule="evenodd" clip-rule="evenodd" d="M84.4183 17.6244C84.8814 23.4126 89.975 26.191 89.975 26.191C92.2903 28.0432 101.79 27.8649 104.098 27.5802L104.245 27.5621C106.212 27.3211 108.199 27.0777 109.329 25.4964C110.28 24.1651 110.486 21.7919 108.171 20.1712C106.821 19.2261 104.451 19.1902 102.859 19.2967L101.285 19.4669L101.251 19.4723L101.225 19.4766L101.233 19.4725L94.7945 20.1685L94.6949 19.2478L102.525 18.4013C104.93 15.5857 105.495 9.47137 104.098 6.27938C102.478 2.57489 96.7681 -1.26851 90.2066 1.64877C83.9552 4.42714 83.9552 11.8361 84.4183 17.6244ZM95.7212 10.7989C96.2327 10.7989 96.6473 10.3843 96.6473 9.87282C96.6473 9.36134 96.2327 8.9467 95.7212 8.9467C95.2097 8.9467 94.7951 9.36134 94.7951 9.87282C94.7951 10.3843 95.2097 10.7989 95.7212 10.7989ZM102.204 9.8728C102.204 10.3843 101.789 10.7989 101.278 10.7989C100.767 10.7989 100.352 10.3843 100.352 9.8728C100.352 9.36131 100.767 8.94668 101.278 8.94668C101.789 8.94668 102.204 9.36131 102.204 9.8728Z" fill="#1C1814"/>
</svg>
