<svg width="14" height="15" viewBox="0 0 14 15" fill="none" xmlns="http://www.w3.org/2000/svg">
<path fill-rule="evenodd" clip-rule="evenodd" d="M0.015124 10.9458C-0.225734 6.86445 2.4237 0.120429 7 0C11.5763 0.120429 14.2257 6.86445 13.9849 10.9458C13.9849 13.0063 12.4217 14.4382 10.4924 14.4382C9.04218 14.4382 7.79879 13.5549 7.27076 12.2968V6.57665H6.78905V12.1443C6.30021 13.4829 5.01575 14.4382 3.50756 14.4382C1.57829 14.4382 0.015124 13.0063 0.015124 10.9458ZM4.55133 5.60517C4.85538 5.60517 5.10186 5.35869 5.10186 5.05464C5.10186 4.75059 4.85538 4.50411 4.55133 4.50411C4.24728 4.50411 4.0008 4.75059 4.0008 5.05464C4.0008 5.35869 4.24728 5.60517 4.55133 5.60517ZM10.0566 5.05464C10.0566 5.35869 9.81009 5.60517 9.50604 5.60517C9.20199 5.60517 8.95551 5.35869 8.95551 5.05464C8.95551 4.75059 9.20199 4.50411 9.50604 4.50411C9.81009 4.50411 10.0566 4.75059 10.0566 5.05464Z" fill="white"/>
</svg>
