<svg width="14" height="14" viewBox="0 0 14 14" fill="none" xmlns="http://www.w3.org/2000/svg">
<path fill-rule="evenodd" clip-rule="evenodd" d="M10.0075 0.125119C6.80983 -0.348608 0 0.232892 0 7.05338C0 14.6816 8.9416 13.5079 9.88906 12.6789C10.9142 11.7817 10.709 10.2668 9.52974 9.47054H5.00648V8.99681H9.42867C10.6947 8.68274 13.5363 7.731 13.9157 5.45455C14.271 3.32278 13.6007 0.658062 10.0075 0.125119ZM11.3753 4.30574C11.3753 4.56738 11.1632 4.77947 10.9016 4.77947C10.64 4.77947 10.4279 4.56738 10.4279 4.30574C10.4279 4.04411 10.64 3.83202 10.9016 3.83202C11.1632 3.83202 11.3753 4.04411 11.3753 4.30574Z" fill="white"/>
</svg>
