<svg width="144" height="144" viewBox="0 0 144 144" fill="none" xmlns="http://www.w3.org/2000/svg">
<g id="Isolation Mode">
<path id="Subtract" fill-rule="evenodd" clip-rule="evenodd" d="M0.669581 54.884C-0.53806 34.4195 12.746 0.603851 35.6912 0C58.6363 0.603851 71.9204 34.4195 70.7127 54.884C70.7127 65.2159 62.8752 72.3957 53.202 72.3957C45.9311 72.3957 39.6973 67.9674 37.0494 61.6598V32.9763H34.6342V60.8916C32.1836 67.6049 25.743 72.3957 18.1804 72.3957C8.50717 72.3957 0.669581 65.2159 0.669581 54.884ZM24.9485 29.1175C26.2824 29.1175 27.3638 28.0361 27.3638 26.7022C27.3638 25.3682 26.2824 24.2869 24.9485 24.2869C23.6146 24.2869 22.5332 25.3682 22.5332 26.7022C22.5332 28.0361 23.6146 29.1175 24.9485 29.1175ZM49.1021 26.7021C49.1021 28.036 48.0207 29.1174 46.6868 29.1174C45.3529 29.1174 44.2715 28.036 44.2715 26.7021C44.2715 25.3682 45.3529 24.2868 46.6868 24.2868C48.0207 24.2868 49.1021 25.3682 49.1021 26.7021Z" fill="#EFEFEF"/>
<path id="Subtract_2" fill-rule="evenodd" clip-rule="evenodd" d="M51.0228 75.3785C34.7197 72.9631 0 75.9281 0 110.704C0 149.598 45.5884 143.614 50.419 139.387C55.6459 134.812 54.5996 127.088 48.587 123.028H25.5293V120.613H48.0715C54.5263 119.012 69.0145 114.159 70.9489 102.552C72.7603 91.6825 69.3427 78.0959 51.0228 75.3785ZM54.5376 96.1446C54.5376 97.4785 53.4562 98.5598 52.1223 98.5598C50.7884 98.5598 49.707 97.4785 49.707 96.1446C49.707 94.8106 50.7884 93.7293 52.1223 93.7293C53.4562 93.7293 54.5376 94.8106 54.5376 96.1446Z" fill="#EFEFEF"/>
<path id="Subtract_3" fill-rule="evenodd" clip-rule="evenodd" d="M123.644 2.97096C107.341 0.555552 72.6211 3.52046 72.6211 38.2962C72.6211 77.1903 118.21 71.2061 123.04 66.9792C128.267 62.4048 127.221 54.6806 121.208 50.6208H98.1445V48.2055H120.692C127.146 46.6044 141.635 41.7519 143.57 30.1443C145.381 19.2749 141.964 5.68829 123.644 2.97096ZM130.618 24.287C130.618 25.6209 129.536 26.7023 128.202 26.7023C126.868 26.7023 125.787 25.6209 125.787 24.287C125.787 22.9531 126.868 21.8717 128.202 21.8717C129.536 21.8717 130.618 22.9531 130.618 24.287Z" fill="#EFEFEF"/>
<path id="Subtract_4" fill-rule="evenodd" clip-rule="evenodd" d="M75.1763 117.57C76.3839 132.666 89.668 139.913 89.668 139.913C95.7062 144.743 120.481 144.278 126.501 143.536L126.885 143.489C132.014 142.86 137.196 142.225 140.141 138.101C142.623 134.629 143.16 128.439 137.122 124.213C133.601 121.747 127.415 121.654 123.264 121.932L119.169 122.375L119.077 122.389C119.031 122.397 119.008 122.401 119.008 122.401L119.028 122.39L102.237 124.205L101.978 121.804L122.398 119.596C128.67 112.253 130.143 96.3064 126.501 87.9814C122.274 78.3198 107.384 68.2959 90.2718 75.9044C73.9687 83.1506 73.9687 102.474 75.1763 117.57ZM104.656 99.7687C105.989 99.7687 107.071 98.6873 107.071 97.3534C107.071 96.0194 105.989 94.9381 104.656 94.9381C103.322 94.9381 102.24 96.0194 102.24 97.3534C102.24 98.6873 103.322 99.7687 104.656 99.7687ZM121.563 97.3533C121.563 98.6872 120.482 99.7686 119.148 99.7686C117.814 99.7686 116.732 98.6872 116.732 97.3533C116.732 96.0194 117.814 94.938 119.148 94.938C120.482 94.938 121.563 96.0194 121.563 97.3533Z" fill="#EFEFEF"/>
</g>
</svg>
