<svg width="14" height="15" viewBox="0 0 14 15" fill="none" xmlns="http://www.w3.org/2000/svg">
<path fill-rule="evenodd" clip-rule="evenodd" d="M0.0961616 9.24115C0.347822 12.3869 3.11609 13.8969 3.11609 13.8969C4.3744 14.9035 9.53722 14.8066 10.7917 14.6519L10.8717 14.642C11.9406 14.5111 13.0204 14.3788 13.6343 13.5194C14.1514 12.7959 14.2634 11.5061 13.0051 10.6253C12.2715 10.1116 10.9828 10.0921 10.1179 10.15L9.26317 10.2424C9.24157 10.2458 9.23019 10.2478 9.23019 10.2478L9.23438 10.2455L5.73535 10.6238L5.68125 10.1234L9.93677 9.66336C11.2437 8.13315 11.5507 4.81021 10.7917 3.07546C9.91093 1.06217 6.80796 -1.02662 3.24192 0.558848C-0.155499 2.06881 -0.155499 6.09539 0.0961616 9.24115ZM6.23879 5.53177C6.51677 5.53177 6.74211 5.30643 6.74211 5.02845C6.74211 4.75048 6.51677 4.52513 6.23879 4.52513C5.96082 4.52513 5.73547 4.75048 5.73547 5.02845C5.73547 5.30643 5.96082 5.53177 6.23879 5.53177ZM9.762 5.02845C9.762 5.30643 9.53665 5.53177 9.25868 5.53177C8.9807 5.53177 8.75535 5.30643 8.75535 5.02845C8.75535 4.75048 8.9807 4.52513 9.25868 4.52513C9.53665 4.52513 9.762 4.75048 9.762 5.02845Z" fill="white"/>
</svg>
