<svg width="38" height="51" viewBox="0 0 38 51" fill="none" xmlns="http://www.w3.org/2000/svg">
<g clip-path="url(#clip0_1094_773)">
<path d="M36.1864 42.8772L31.3492 43.348L29.8143 37.9721C32.4156 37.645 34.9571 37.197 36.4521 35.1369C37.8176 33.2566 38.1133 29.9048 34.791 27.6157C31.688 25.4771 24.8242 26.6347 24.8242 26.6347C29.8076 24.0187 31.2727 13.2274 28.9472 7.99533C26.6216 2.76322 18.4289 -2.66837 9.01361 1.45192C0.0435109 5.376 0.0435112 15.8402 0.707963 24.0154C1.0568 28.2894 3.21959 31.3992 5.20298 33.3972L0.139857 44.4631C-0.232236 45.2741 0.15979 46.2257 1.00032 46.556L8.6083 49.5219C9.04683 49.6789 9.48205 49.6004 9.84085 49.3813C10.791 48.7993 10.894 47.3539 10.0834 46.6933L6.34916 43.6325L10.2462 36.9224C11.2628 37.2919 12.5485 37.5698 13.9771 37.7824L13.6714 49.4042C13.6482 50.2937 14.3824 51.0229 15.2894 51.0033L23.4721 50.843C23.9372 50.8202 24.306 50.5847 24.5518 50.2446C25.1963 49.3454 24.7246 47.9752 23.7213 47.6711L19.0734 46.2682L20.0668 38.2827C21.3159 38.3252 22.5385 38.3383 23.6747 38.3285L27.6017 48.2924C27.9272 49.123 28.894 49.5154 29.7213 49.1557L37.2063 45.902C37.6282 45.7025 37.8741 45.3461 37.9671 44.9406C38.2096 43.8647 37.2395 42.7823 36.193 42.8837L36.1864 42.8772Z" fill="#E66830"/>
<path d="M22.2895 7.17126L21.5287 6.54014L19.7047 8.66895C18.831 8.04437 17.7878 7.63561 16.6516 7.53751L16.7147 5.00321L15.718 4.98032L15.6549 7.53424C14.5187 7.61272 13.4689 7.99532 12.5851 8.60028L10.9805 6.38972L10.1699 6.95871L11.8144 9.22487C10.6649 10.3236 9.94727 11.8605 9.94727 13.561C9.94727 16.903 12.6981 19.6106 16.0934 19.6106C19.4888 19.6106 22.2396 16.903 22.2396 13.561C22.2396 11.9031 21.5619 10.3988 20.4622 9.30662L22.2895 7.17126Z" fill="white"/>
<path d="M16.0935 16.3373C17.6531 16.3373 18.9174 15.0928 18.9174 13.5577C18.9174 12.0226 17.6531 10.7782 16.0935 10.7782C14.5338 10.7782 13.2695 12.0226 13.2695 13.5577C13.2695 15.0928 14.5338 16.3373 16.0935 16.3373Z" fill="#191919"/>
<path d="M29.3825 21.5694C30.9421 21.5694 32.2064 20.3249 32.2064 18.7898C32.2064 17.2547 30.9421 16.0103 29.3825 16.0103C27.8229 16.0103 26.5586 17.2547 26.5586 18.7898C26.5586 20.3249 27.8229 21.5694 29.3825 21.5694Z" fill="#FCB69A"/>
</g>
<defs>
<clipPath id="clip0_1094_773">
<rect width="38" height="51" fill="white"/>
</clipPath>
</defs>
</svg>
